<svg width="20" height="20" viewBox="0 0 20 20" fill="none" xmlns="http://www.w3.org/2000/svg">
<path fill-rule="evenodd" clip-rule="evenodd" d="M9.99984 2.58334C7.74467 2.58334 5.9165 4.41151 5.9165 6.66668C5.9165 8.92184 7.74467 10.75 9.99984 10.75C12.255 10.75 14.0832 8.92184 14.0832 6.66668C14.0832 4.41151 12.255 2.58334 9.99984 2.58334ZM7.4165 6.66668C7.4165 5.23994 8.5731 4.08334 9.99984 4.08334C11.4266 4.08334 12.5832 5.23994 12.5832 6.66668C12.5832 8.09341 11.4266 9.25001 9.99984 9.25001C8.5731 9.25001 7.4165 8.09341 7.4165 6.66668Z" fill="#0F1729"/>
<path d="M15.2147 3.44808C14.8179 3.32943 14.4 3.55497 14.2813 3.95182C14.1627 4.34868 14.3882 4.76658 14.785 4.88523C15.3734 5.06113 15.9165 5.73705 15.9165 6.66666C15.9165 7.59626 15.3734 8.27218 14.785 8.44808C14.3882 8.56673 14.1627 8.98463 14.2813 9.38149C14.4 9.77835 14.8179 10.0039 15.2147 9.88523C16.5433 9.48802 17.4165 8.14263 17.4165 6.66666C17.4165 5.19068 16.5433 3.84529 15.2147 3.44808Z" fill="#0F1729"/>
<path fill-rule="evenodd" clip-rule="evenodd" d="M5.57067 12.4916C6.7645 11.9615 8.34338 11.75 9.99984 11.75C11.6563 11.75 13.2352 11.9615 14.429 12.4916C15.644 13.0311 16.5832 13.9731 16.5832 15.4167C16.5832 15.7955 16.514 16.2212 16.2603 16.626C16.0066 17.0307 15.6148 17.3405 15.1006 17.5731C14.1105 18.0211 12.5119 18.25 9.99984 18.25C7.48777 18.25 5.88916 18.0211 4.89903 17.5731C4.3849 17.3405 3.99309 17.0307 3.73938 16.626C3.48564 16.2212 3.4165 15.7955 3.4165 15.4167C3.4165 13.9731 4.35567 13.0311 5.57067 12.4916ZM6.17943 13.8625C5.28318 14.2605 4.9165 14.7769 4.9165 15.4167C4.9165 15.6132 4.95153 15.7355 5.0103 15.8292C5.06909 15.923 5.19811 16.0621 5.51731 16.2065C6.19385 16.5126 7.5119 16.75 9.99984 16.75C12.4878 16.75 13.8058 16.5126 14.4824 16.2065C14.8016 16.0621 14.9306 15.923 14.9894 15.8292C15.0481 15.7355 15.0832 15.6132 15.0832 15.4167C15.0832 14.7769 14.7165 14.2605 13.8202 13.8625C12.9028 13.4552 11.565 13.25 9.99984 13.25C8.43463 13.25 7.09685 13.4552 6.17943 13.8625Z" fill="#0F1729"/>
<path d="M16.9999 10.9948C16.6289 10.8107 16.1788 10.9622 15.9947 11.3333C15.8106 11.7043 15.9621 12.1544 16.3331 12.3385C17.1629 12.7502 17.5832 13.3331 17.5832 14.1667C17.5832 14.5809 17.919 14.9167 18.3332 14.9167C18.7474 14.9167 19.0832 14.5809 19.0832 14.1667C19.0832 12.6434 18.223 11.6018 16.9999 10.9948Z" fill="#0F1729"/>
</svg>
