<svg width="20" height="20" viewBox="0 0 20 20" fill="none" xmlns="http://www.w3.org/2000/svg">
<path fill-rule="evenodd" clip-rule="evenodd" d="M6.66683 0.916664C7.08104 0.916664 7.41683 1.25245 7.41683 1.66666V2.5846C7.64052 2.58333 7.87821 2.58333 8.13084 2.58333H11.8695C12.1221 2.58333 12.3598 2.58333 12.5835 2.5846V1.66666C12.5835 1.25245 12.9193 0.916664 13.3335 0.916664C13.7477 0.916664 14.0835 1.25245 14.0835 1.66666V2.64537C14.5649 2.69742 14.9951 2.79754 15.3955 3.00553C16.0804 3.36131 16.6388 3.91976 16.9946 4.60468C17.2284 5.05468 17.3259 5.54234 17.372 6.09795C17.4168 6.6375 17.4168 7.30415 17.4168 8.13067V11.8693C17.4168 12.6958 17.4168 13.3625 17.372 13.902C17.3259 14.4577 17.2284 14.9453 16.9946 15.3953C16.6388 16.0802 16.0804 16.6387 15.3955 16.9945C14.9455 17.2282 14.4578 17.3257 13.9022 17.3719C13.3627 17.4167 12.696 17.4167 11.8695 17.4167H8.13084C7.30431 17.4167 6.63766 17.4167 6.09812 17.3719C5.54251 17.3257 5.05485 17.2282 4.60484 16.9945C3.91993 16.6387 3.36148 16.0802 3.0057 15.3953C2.77194 14.9453 2.67443 14.4577 2.62829 13.902C2.58348 13.3625 2.58349 12.6958 2.5835 11.8693V8.13067C2.58349 7.30415 2.58348 6.6375 2.62829 6.09795C2.67443 5.54234 2.77194 5.05468 3.0057 4.60468C3.36148 3.91976 3.91993 3.36131 4.60484 3.00553C5.00525 2.79754 5.43546 2.69742 5.91683 2.64537V1.66666C5.91683 1.25245 6.25262 0.916664 6.66683 0.916664ZM5.91683 4.15707C5.63534 4.1982 5.44748 4.25812 5.2963 4.33665C4.88536 4.55012 4.55029 4.88519 4.33682 5.29614C4.23281 5.49635 4.16144 5.76092 4.12314 6.22209C4.09346 6.57952 4.086 7.01445 4.08412 7.58333H15.9162C15.9143 7.01445 15.9069 6.57952 15.8772 6.22209C15.8389 5.76092 15.7675 5.49635 15.6635 5.29614C15.45 4.88519 15.115 4.55012 14.704 4.33665C14.5528 4.25812 14.365 4.1982 14.0835 4.15707V5C14.0835 5.41421 13.7477 5.75 13.3335 5.75C12.9193 5.75 12.5835 5.41421 12.5835 5V4.0847C12.3581 4.08339 12.1106 4.08333 11.8368 4.08333H8.1635C7.88977 4.08333 7.64223 4.08339 7.41683 4.0847V5C7.41683 5.41421 7.08104 5.75 6.66683 5.75C6.25262 5.75 5.91683 5.41421 5.91683 5V4.15707ZM15.9168 9.08333H4.0835V11.8367C4.0835 12.7035 4.0841 13.3077 4.12314 13.7779C4.16144 14.2391 4.23281 14.5036 4.33682 14.7039C4.55029 15.1148 4.88536 15.4499 5.2963 15.6633C5.49652 15.7673 5.76108 15.8387 6.22226 15.877C6.69241 15.9161 7.29667 15.9167 8.16349 15.9167H11.8368C12.7037 15.9167 13.3079 15.9161 13.7781 15.877C14.2392 15.8387 14.5038 15.7673 14.704 15.6633C15.115 15.4499 15.45 15.1148 15.6635 14.7039C15.7675 14.5036 15.8389 14.2391 15.8772 13.7779C15.9162 13.3077 15.9168 12.7035 15.9168 11.8367V9.08333ZM10.9168 13.3333C10.9168 12.9191 11.2526 12.5833 11.6668 12.5833H13.3335C13.7477 12.5833 14.0835 12.9191 14.0835 13.3333C14.0835 13.7475 13.7477 14.0833 13.3335 14.0833H11.6668C11.2526 14.0833 10.9168 13.7475 10.9168 13.3333Z" fill="#0F1729"/>
</svg>
